<?xml version="1.0" standalone="no"?>
<!DOCTYPE svg PUBLIC "-//W3C//DTD SVG 20010904//EN"
 "http://www.w3.org/TR/2001/REC-SVG-20010904/DTD/svg10.dtd">
<svg version="1.0" xmlns="http://www.w3.org/2000/svg"
 width="500.000000pt" height="500.000000pt" viewBox="0 0 500.000000 500.000000"
 preserveAspectRatio="xMidYMid meet">

<g transform="translate(0.000000,500.000000) scale(0.100000,-0.100000)"
fill="#000000" stroke="none">
<path d="M230 4400 l0 -360 278 -3 277 -2 -277 -3 -278 -2 0 -185 0 -184 158
-4 157 -3 -157 -2 -158 -2 0 -25 0 -24 148 -4 147 -3 -147 -2 -148 -2 0 -1075
0 -1075 105 0 105 0 0 -650 0 -650 1620 0 1620 0 0 -70 0 -70 635 0 635 0 0
720 0 720 -50 0 -50 0 0 1515 0 1515 -585 0 -585 0 0 145 0 145 -950 0 -949 0
-4 -62 -3 -63 -2 63 -2 62 -40 0 -39 0 -4 -82 -3 -83 -2 83 -2 82 -65 0 -64 0
-4 -112 -3 -113 -2 113 -2 112 -95 0 -95 0 0 -161 c0 -149 1 -161 18 -154 13
5 14 3 5 -6 -27 -27 -33 4 -33 162 0 135 -2 159 -15 159 -13 0 -15 -26 -17
-167 l-2 -168 -6 170 -6 170 -2 -184 c-2 -173 -1 -183 16 -170 15 13 16 12 3
-3 -7 -10 -17 -18 -22 -18 -5 0 -9 83 -9 185 l0 185 -35 0 -36 0 1 -210 2
-211 -25 -19 c-14 -11 -28 -20 -31 -20 -3 0 -6 104 -6 230 0 139 -4 230 -9
230 -6 0 -11 -98 -13 -241 l-3 -240 -65 -56 c-36 -31 -121 -113 -189 -182 -68
-69 -118 -116 -110 -103 8 12 17 22 21 22 4 0 15 14 24 31 13 26 14 33 2 40
-9 6 -2 9 20 9 l32 0 0 360 0 360 -315 0 -315 0 0 -360z m2299 188 c5 -29 13
-81 16 -116 4 -34 11 -64 16 -67 5 -3 20 2 35 12 l26 17 -7 -82 c-4 -45 -4
-82 0 -82 3 0 15 5 26 10 24 14 24 10 -7 -83 -14 -43 -24 -81 -21 -84 3 -3 20
-1 36 5 39 14 40 5 7 -83 -27 -70 -22 -86 19 -59 14 9 27 15 29 13 2 -2 0 -30
-5 -63 -5 -32 -8 -61 -5 -63 2 -3 14 1 26 7 12 6 24 9 27 6 3 -3 -4 -36 -16
-75 -28 -92 -28 -94 12 -87 l34 6 -23 -92 c-13 -51 -24 -94 -24 -96 0 -2 14
-1 31 3 27 6 30 5 25 -12 -3 -10 -13 -45 -21 -78 -9 -33 -18 -68 -21 -78 -5
-16 -1 -17 30 -12 20 4 36 3 36 -1 0 -9 -40 -157 -55 -203 -7 -23 -6 -24 30
-18 34 6 37 4 32 -16 -8 -32 -39 -199 -41 -217 0 -8 10 -17 25 -20 l26 -5 -24
-74 c-12 -41 -21 -76 -19 -79 3 -2 19 0 35 6 l31 11 -18 -37 c-58 -116 -72
-147 -72 -159 0 -16 0 -16 43 2 50 21 50 20 24 -22 -48 -77 -97 -161 -97 -167
0 -10 40 -7 62 5 11 6 22 8 25 5 3 -3 -15 -64 -41 -137 -52 -149 -55 -163 -26
-154 11 3 20 4 20 1 0 -6 -20 -51 -76 -174 -19 -40 -34 -75 -34 -78 0 -4 11
-3 25 0 17 4 25 2 25 -6 0 -17 -25 -162 -45 -267 -16 -81 -14 -105 4 -85 8 8
52 193 68 287 6 30 15 34 33 12 7 -8 16 -15 19 -15 4 0 12 55 19 121 6 67 13
123 16 126 2 3 16 -3 30 -12 31 -21 28 -26 52 113 l17 102 24 -15 c30 -20 43
-12 43 25 0 36 20 168 29 193 5 15 10 14 44 -14 l37 -31 25 56 c13 30 31 72
40 92 15 35 16 36 29 18 18 -23 17 -24 65 66 42 80 56 93 66 60 11 -35 29 -17
44 46 16 69 19 73 32 54 13 -22 26 1 35 64 l6 49 18 -23 c20 -26 20 -25 35 49
7 32 8 34 21 16 18 -24 21 -20 37 51 13 55 15 57 26 37 19 -36 28 -27 36 32 7
57 12 64 34 43 10 -11 15 -9 27 7 8 11 17 30 21 43 4 16 10 21 23 17 14 -4 20
3 29 39 6 25 11 54 11 65 0 22 14 28 25 11 13 -21 23 -8 35 41 9 36 15 48 23
40 19 -19 27 -12 33 29 6 39 7 40 26 23 24 -21 32 -11 49 59 8 36 16 48 30 48
14 0 19 7 19 25 0 28 3 30 30 13 17 -11 24 -7 54 27 20 22 52 61 73 87 20 26
39 45 41 43 3 -3 -18 -51 -47 -107 -28 -57 -51 -106 -51 -110 0 -5 16 -8 35
-8 19 0 35 -3 35 -6 0 -3 -21 -33 -47 -66 -27 -34 -43 -63 -38 -65 41 -15 40
-22 -9 -66 -49 -43 -55 -67 -16 -67 10 0 22 -4 25 -10 3 -5 2 -10 -3 -10 -12
0 -102 -71 -102 -81 0 -4 16 -13 35 -19 l35 -12 -47 -42 -47 -43 32 -17 c18
-9 32 -20 32 -24 0 -4 -20 -28 -45 -52 -50 -49 -55 -60 -25 -60 30 0 24 -12
-20 -43 -46 -32 -49 -42 -17 -51 21 -6 19 -9 -28 -51 -27 -25 -65 -55 -82 -67
-39 -27 -43 -48 -9 -48 14 0 27 -3 30 -8 2 -4 -37 -37 -87 -72 -97 -70 -114
-90 -74 -90 13 0 38 -3 55 -6 l31 -6 -52 -48 c-29 -26 -74 -66 -102 -90 -57
-49 -67 -70 -33 -70 54 -1 48 -15 -42 -105 -50 -49 -90 -93 -90 -97 0 -4 15
-8 32 -10 l33 -3 -68 -48 c-37 -26 -67 -52 -67 -56 0 -5 11 -12 25 -15 14 -4
25 -10 25 -14 0 -4 -45 -32 -100 -62 -55 -30 -100 -58 -100 -62 0 -4 14 -11
32 -16 l32 -8 -152 -123 c-84 -67 -150 -126 -147 -131 3 -5 19 -7 35 -3 27 5
44 -10 22 -19 -7 -2 -104 -112 -161 -182 -9 -11 10 -1 42 23 31 23 57 37 57
31 0 -24 22 -4 121 107 102 115 104 116 107 85 2 -18 6 -32 10 -32 4 0 39 33
79 72 60 60 73 69 73 50 0 -37 23 -25 85 48 33 38 63 70 68 70 4 0 7 -11 7
-25 0 -14 4 -25 10 -25 5 0 39 18 75 40 l65 40 0 -25 c0 -14 3 -25 8 -25 4 0
34 21 67 46 51 38 61 43 63 27 8 -37 22 -35 96 15 48 31 76 45 76 36 0 -23 18
-17 79 26 65 46 71 48 64 20 -9 -33 14 -23 58 25 42 46 59 55 59 33 0 -7 4
-19 9 -27 8 -12 20 -6 64 32 60 51 67 54 67 32 0 -22 5 -20 62 25 28 23 53 39
55 36 9 -8 -88 -284 -108 -310 -11 -14 -18 -30 -14 -36 9 -14 -32 -50 -57 -50
-13 0 -30 -4 -38 -10 -12 -8 -12 -11 3 -28 23 -25 13 -32 -42 -32 -60 0 -77
-11 -62 -39 11 -20 10 -21 -50 -21 -61 0 -61 0 -56 -26 5 -30 4 -31 -87 -43
-37 -6 -71 -12 -74 -15 -3 -4 5 -17 18 -31 27 -29 24 -30 -70 -40 -80 -8 -85
-11 -66 -40 20 -30 13 -35 -48 -35 -74 0 -99 -9 -92 -31 20 -65 31 -59 -109
-59 -117 0 -127 -1 -120 -17 15 -36 17 -53 7 -53 -34 0 -296 -31 -301 -36 -3
-3 5 -13 18 -23 l24 -18 -34 -6 c-19 -3 -80 -9 -136 -13 -110 -7 -128 -18 -72
-45 30 -14 27 -15 -107 -33 -174 -22 -190 -26 -172 -37 7 -5 25 -9 40 -9 15 0
30 -5 33 -10 3 -6 24 -10 46 -10 26 0 45 -6 56 -20 11 -12 36 -21 70 -26 29
-3 57 -12 61 -20 8 -15 84 -44 113 -44 11 0 19 -7 19 -17 0 -13 22 -27 71 -48
50 -21 74 -37 80 -54 11 -28 2 -37 -48 -47 -24 -5 -43 0 -75 19 -24 13 -48 22
-55 20 -6 -2 -36 12 -67 32 -30 21 -59 34 -65 30 -6 -3 -32 10 -57 29 -26 20
-55 36 -65 36 -10 0 -33 9 -53 20 -22 14 -37 17 -41 11 -4 -7 -28 5 -60 29
-30 22 -58 40 -63 40 -4 0 -16 -86 -25 -191 -10 -105 -20 -195 -23 -200 -7
-12 -121 -11 -129 1 -3 6 -14 93 -24 195 -9 101 -20 187 -24 191 -3 4 -29 -10
-56 -30 -28 -19 -57 -33 -65 -30 -8 3 -31 -6 -52 -19 -20 -14 -42 -23 -50 -20
-7 3 -33 -11 -57 -31 -25 -21 -51 -34 -59 -31 -8 3 -37 -10 -65 -29 -28 -19
-60 -34 -70 -33 -11 0 -42 -13 -70 -31 -44 -28 -55 -31 -96 -26 -48 7 -59 22
-32 44 8 7 15 18 15 25 0 6 36 27 80 46 52 22 80 40 80 50 0 11 17 20 55 28
31 7 63 21 73 31 9 9 40 21 67 25 29 4 58 15 68 26 12 12 31 19 57 19 21 0 42
5 45 10 3 6 21 10 40 10 45 0 54 18 13 24 -103 16 -170 25 -228 32 l-65 7 33
15 c59 28 40 39 -85 48 -65 4 -126 6 -135 5 -24 -3 -23 16 2 29 44 24 23 31
-135 45 -79 7 -148 17 -158 22 -4 2 0 14 8 26 8 12 15 25 15 29 0 5 -56 8
-125 8 -69 0 -125 3 -125 8 0 4 4 21 9 39 11 37 -1 43 -91 43 -62 0 -66 4 -43
37 8 12 12 24 7 27 -4 3 -43 8 -85 12 -42 4 -77 9 -77 12 0 3 10 16 22 29 12
13 19 26 15 29 -3 3 -42 11 -87 16 l-81 11 6 29 7 30 -66 -4 c-36 -1 -66 -1
-66 1 0 3 8 13 17 23 23 26 4 38 -63 38 -62 0 -70 7 -43 36 23 25 23 25 -51
39 -72 13 -74 14 -55 35 21 24 14 35 -31 50 -28 10 -33 15 -23 26 16 19 5 42
-22 46 -18 2 -27 17 -45 69 -37 111 -39 129 -15 129 14 0 21 8 23 26 l3 27 57
-47 c31 -25 59 -46 62 -46 3 0 6 10 6 22 0 20 1 21 20 3 11 -10 21 -16 23 -14
1 2 1 50 -1 107 l-3 102 -84 0 c-46 0 -87 5 -90 10 -4 6 26 10 84 10 49 0 96
2 104 6 12 4 14 -16 14 -126 1 -111 3 -134 18 -150 24 -27 42 -25 49 5 l7 26
26 -21 c14 -11 36 -20 48 -20 13 0 47 -16 76 -36 44 -31 63 -37 116 -41 35 -2
62 0 61 4 -2 4 2 9 7 11 21 7 44 35 38 46 -3 6 -2 8 2 3 5 -4 25 7 44 25 20
18 7 2 -29 -35 -35 -37 -71 -67 -78 -67 -22 0 2 -25 53 -55 52 -30 65 -31 65
-5 0 28 11 25 61 -15 50 -40 69 -44 69 -15 0 11 3 20 8 20 12 0 110 -59 117
-70 13 -21 34 -9 37 20 3 30 3 30 68 -44 36 -41 69 -75 73 -75 4 -1 11 8 15
19 6 17 16 11 80 -52 66 -65 72 -69 72 -45 0 14 4 28 9 31 5 3 55 -47 112
-112 108 -123 126 -139 114 -102 l-7 23 31 -22 c17 -12 33 -26 36 -31 3 -6 16
-15 28 -22 21 -11 21 -10 7 8 -29 38 -145 169 -152 172 -20 9 -4 21 29 24 l38
3 -115 91 c-63 50 -133 108 -155 127 l-40 36 28 1 c46 0 31 26 -40 65 -38 21
-83 47 -102 58 l-33 20 33 14 c37 15 38 13 -51 77 l-64 46 37 0 c20 0 37 4 37
9 0 5 -43 50 -96 100 l-96 90 41 7 c23 4 41 10 41 14 0 7 -16 23 -149 140 -68
59 -66 68 12 69 20 1 37 5 37 11 0 5 -19 22 -42 37 -24 16 -48 32 -54 38 -6 5
-32 23 -57 39 -26 17 -47 33 -47 36 0 4 16 11 36 16 l36 9 -86 70 c-84 68 -86
70 -61 79 14 6 25 13 25 17 0 3 -18 18 -40 33 -44 29 -51 46 -20 46 27 0 25 9
-12 47 -25 26 -40 33 -70 33 -51 0 -88 35 -88 83 0 45 33 87 68 87 34 0 72 10
72 19 0 3 -25 24 -55 46 -30 22 -54 43 -55 48 0 4 14 10 30 14 17 3 30 9 30
13 0 5 -23 27 -51 51 l-51 42 26 14 26 14 -45 59 c-25 32 -45 61 -45 64 0 3
16 6 35 6 19 0 35 4 35 9 0 5 -18 40 -39 78 -22 37 -42 82 -46 98 -6 28 -3 27
45 -25 28 -30 58 -65 67 -77 18 -26 41 -30 49 -8 8 21 24 8 24 -19 0 -14 7
-26 18 -28 11 -3 24 -26 35 -61 18 -57 30 -70 41 -42 10 27 24 16 31 -26 5
-30 10 -38 18 -30 18 18 25 13 32 -27 7 -45 24 -73 32 -54 12 29 32 10 38 -35
10 -71 15 -85 31 -79 9 3 21 -9 34 -35 18 -34 23 -38 40 -29 23 12 24 9 35
-52 7 -42 11 -45 36 -23 15 15 17 13 23 -27 8 -49 24 -81 33 -60 9 23 21 12
28 -26 9 -53 21 -71 30 -43 8 28 25 27 25 -1 0 -13 5 -40 11 -62 8 -28 14 -35
22 -27 18 18 24 13 31 -28 3 -22 11 -52 17 -68 l11 -28 19 24 c19 23 20 23 34
5 7 -10 28 -47 45 -81 17 -35 34 -63 37 -63 3 0 11 7 17 16 10 13 18 2 51 -70
22 -47 44 -86 50 -86 5 0 23 14 41 31 l31 30 6 -23 c3 -13 11 -71 18 -130 12
-109 21 -126 49 -93 7 8 16 15 20 15 4 0 15 -50 25 -110 10 -61 21 -113 25
-115 4 -3 19 5 34 16 19 15 26 17 26 6 0 -30 22 -232 26 -236 2 -2 13 4 24 14
23 21 18 33 54 -135 15 -69 30 -132 33 -140 4 -8 12 -35 19 -60 l13 -45 -6 45
c-3 25 -6 52 -5 60 0 8 -9 65 -20 125 -11 61 -22 132 -25 158 -6 48 -6 48 21
41 14 -3 26 -4 26 -1 0 3 -27 63 -60 133 -33 70 -60 128 -60 129 0 1 11 0 25
-3 14 -2 25 0 25 4 0 5 -22 70 -49 144 -26 74 -47 137 -45 139 2 2 21 -4 44
-13 22 -9 43 -16 45 -16 12 0 1 24 -54 116 -33 54 -58 100 -56 102 1 2 20 -4
40 -13 21 -8 40 -13 42 -11 5 5 -64 165 -79 184 -16 18 -3 25 22 12 12 -6 24
-9 28 -6 5 5 -16 94 -33 139 -6 13 -2 17 19 17 32 0 32 4 6 138 -11 56 -20
107 -20 112 0 5 14 7 31 3 31 -6 31 -6 24 28 -4 19 -17 73 -30 121 l-23 87 25
-10 c38 -14 56 -11 50 9 -17 61 -47 173 -47 177 0 3 9 1 21 -5 32 -18 37 -8
23 45 -8 28 -18 69 -23 93 -9 43 -8 43 16 37 13 -3 28 -3 32 0 5 3 0 39 -11
81 -10 42 -17 78 -15 81 3 2 14 -1 26 -8 29 -19 32 -10 20 55 -6 32 -8 60 -6
63 3 2 17 -3 31 -12 40 -27 46 -10 20 60 -31 86 -31 89 11 81 19 -4 35 -5 35
-3 0 2 -13 42 -29 90 -17 48 -26 87 -21 87 5 0 12 -4 15 -10 3 -5 13 -10 21
-10 13 0 14 12 8 82 l-7 82 27 -17 c15 -10 30 -15 35 -13 5 3 12 38 15 78 4
40 12 92 18 116 10 40 12 42 48 42 38 0 39 0 49 -52z m-1059 -93 c0 -2 -10 -9
-22 -15 -22 -11 -22 -10 -4 4 21 17 26 19 26 11z m-200 -108 c0 -2 -9 -12 -20
-22 -24 -21 -27 -14 -4 9 15 15 24 20 24 13z m-530 -486 c0 -6 -4 -13 -10 -16
-5 -3 -10 1 -10 9 0 9 5 16 10 16 6 0 10 -4 10 -9z m-59 -78 c-5 -10 -16 -27
-25 -38 -15 -20 -15 -20 -9 3 3 12 9 22 14 22 5 0 9 7 9 15 0 8 5 15 10 15 7
0 7 -6 1 -17z m2539 -113 c10 -5 28 -23 39 -39 19 -27 20 -31 5 -60 -31 -63
-104 -75 -144 -24 -28 36 -25 70 9 104 31 30 59 36 91 19z m-6 -446 c8 -3 27
-21 41 -40 19 -25 23 -37 15 -46 -5 -7 -19 -25 -31 -40 -15 -21 -29 -28 -55
-28 -47 0 -70 14 -83 50 -23 69 43 131 113 104z m-2309 -144 c-3 -5 -21 -9
-38 -9 l-32 2 35 7 c19 4 36 8 38 9 2 0 0 -3 -3 -9z m-417 -547 c-29 -30 -54
-49 -56 -43 -2 5 -9 7 -15 4 -7 -4 10 16 37 44 27 28 53 49 58 46 5 -3 8 -2 7
3 -1 4 0 37 1 73 l3 65 8 -70 9 -69 -52 -53z m339 18 c-48 -50 -57 -65 -57
-96 0 -79 -85 -113 -135 -53 -30 36 -28 68 8 107 19 20 29 22 68 18 43 -5 49
-3 80 29 18 19 39 32 45 30 7 -3 18 2 24 10 7 8 15 14 18 14 3 0 -20 -27 -51
-59z m86 -73 c-4 -7 -21 -28 -38 -46 -16 -19 -34 -41 -39 -50 -9 -15 -8 -16 9
-2 17 14 17 12 13 -25 -4 -31 0 -44 15 -58 13 -10 21 -31 21 -52 1 -19 3 -35
6 -35 2 0 34 28 69 63 36 34 15 9 -45 -56 -60 -66 -116 -123 -126 -128 -49
-26 -128 4 -148 57 -20 52 -2 81 134 214 72 71 132 130 134 130 2 0 0 -6 -5
-12z m-496 -40 c-3 -7 -5 -2 -5 12 0 14 2 19 5 13 2 -7 2 -19 0 -25z m57 -63
c9 -36 -19 -84 -49 -85 -5 0 1 7 13 16 27 19 30 69 5 97 -17 19 -17 20 3 9 12
-6 25 -23 28 -37z m3681 -140 c51 -50 15 -135 -58 -135 -38 0 -72 29 -82 71
-5 20 0 33 23 57 38 40 82 43 117 7z m-3163 -58 c-34 -36 -26 -44 11 -12 17
16 -8 -12 -57 -62 -49 -51 -92 -90 -96 -88 -3 2 -12 -1 -20 -7 -12 -8 -12 -9
2 -4 13 4 19 -3 24 -31 8 -41 -2 -62 -38 -82 -21 -12 -28 -12 -54 0 -24 12
-30 21 -32 55 -4 50 16 74 61 74 27 0 46 14 122 90 49 50 92 90 94 90 2 0 -5
-10 -17 -23z m26 -54 c-9 -10 -18 -25 -21 -33 -4 -12 -6 -12 -6 2 -1 9 6 24
15 32 21 22 31 20 12 -1z m-4 -80 c11 -13 16 -23 13 -23 -10 0 -37 31 -37 42
0 6 1 9 3 7 1 -2 11 -14 21 -26z m206 -137 c0 -2 -8 -10 -17 -17 -16 -13 -17
-12 -4 4 13 16 21 21 21 13z m2651 -18 c36 -20 39 -25 39 -66 0 -37 -5 -50
-30 -73 -38 -37 -81 -38 -127 -3 -30 22 -33 30 -33 75 0 28 5 49 11 49 5 0 7
6 3 13 -4 6 -4 9 0 5 4 -3 19 0 34 8 37 19 58 18 103 -8z"/>
<path d="M2652 1430 c0 -14 2 -19 5 -12 2 6 2 18 0 25 -3 6 -5 1 -5 -13z"/>
<path d="M819 2603 c-13 -16 -12 -17 4 -4 9 7 17 15 17 17 0 8 -8 3 -21 -13z"/>
<path d="M944 2158 l-19 -23 23 19 c12 11 22 21 22 23 0 8 -8 2 -26 -19z"/>
<path d="M760 2026 c-28 -34 11 -93 47 -70 32 20 39 41 19 63 -22 24 -49 27
-66 7z"/>
<path d="M870 4409 l0 -351 40 38 40 38 0 313 0 313 -40 0 -40 0 0 -351z"/>
<path d="M980 4465 l0 -295 25 16 25 16 0 279 0 279 -25 0 -25 0 0 -295z"/>
<path d="M1050 4506 c0 -140 -3 -263 -7 -273 -6 -16 -5 -16 10 -4 15 12 17 42
17 272 0 166 -4 259 -10 259 -6 0 -10 -91 -10 -254z"/>
<path d="M1080 4509 c0 -196 3 -250 13 -247 9 4 13 65 15 251 2 215 0 247 -13
247 -13 0 -15 -33 -15 -251z"/>
<path d="M1160 4540 c0 -140 4 -220 10 -220 6 0 10 80 10 220 0 140 -4 220
-10 220 -6 0 -10 -80 -10 -220z"/>
<path d="M1194 4550 c0 -118 2 -167 3 -107 2 59 2 155 0 215 -1 59 -3 10 -3
-108z"/>
</g>
</svg>
